HIERARCHY
ROOT Hips
{
	OFFSET 0.000000 0.000000 0.000000
	CHANNELS 6 Xposition Yposition Zposition Zrotation Yrotation Xrotation 
	JOINT LHipJoint
	{
		OFFSET 0.000000 0.000000 0.000000
		CHANNELS 3 Zrotation Yrotation Xrotation
		JOINT LeftUpLeg
		{
			OFFSET 1.363060 -1.794630 0.839290
			CHANNELS 3 Zrotation Yrotation Xrotation
			JOINT LeftLeg
			{
				OFFSET 2.448110 -6.726130 0.000000
				CHANNELS 3 Zrotation Yrotation Xrotation
				JOINT LeftFoot
				{
					OFFSET 2.562200 -7.039590 0.000000
					CHANNELS 3 Zrotation Yrotation Xrotation
					JOINT LeftToeBase
					{
						OFFSET 0.157640 -0.433110 2.322550
						CHANNELS 3 Zrotation Yrotation Xrotation
						End Site
						{
							OFFSET 0.000000 0.000000 0.000000
						}
					}
				}
			}
		}
	}
	JOINT RHipJoint
	{
		OFFSET 0.000000 0.000000 0.000000
		CHANNELS 3 Zrotation Yrotation Xrotation
		JOINT RightUpLeg
		{
			OFFSET -1.305520 -1.794630 0.839290
			CHANNELS 3 Zrotation Yrotation Xrotation
			JOINT RightLeg
			{
				OFFSET -2.542530 -6.985550 0.000000
				CHANNELS 3 Zrotation Yrotation Xrotation
				JOINT RightFoot
				{
					OFFSET -2.568260 -7.056230 0.000000
					CHANNELS 3 Zrotation Yrotation Xrotation
					JOINT RightToeBase
					{
						OFFSET -0.164730 -0.452590 2.363150
						CHANNELS 3 Zrotation Yrotation Xrotation
						End Site
						{
							OFFSET 0.000000 0.000000 0.000000
						}
					}
				}
			}
		}
	}
	JOINT LowerBack
	{
		OFFSET 0.000000 0.000000 0.000000
		CHANNELS 3 Zrotation Yrotation Xrotation
		JOINT Spine
		{
			OFFSET 0.028270 2.035590 -0.193380
			CHANNELS 3 Zrotation Yrotation Xrotation
			JOINT Spine1
			{
				OFFSET 0.056720 2.048850 -0.042750
				CHANNELS 3 Zrotation Yrotation Xrotation
				JOINT Neck
				{
					OFFSET 0.000000 0.000000 0.000000
					CHANNELS 3 Zrotation Yrotation Xrotation
					JOINT Neck1
					{
						OFFSET -0.054170 1.746240 0.172020
						CHANNELS 3 Zrotation Yrotation Xrotation
						JOINT Head
						{
							OFFSET 0.104070 1.761360 -0.123970
							CHANNELS 3 Zrotation Yrotation Xrotation
							End Site
							{
								OFFSET 0.000000 0.000000 0.000000
							}
						}
					}
				}
				JOINT LeftShoulder
				{
					OFFSET 0.000000 0.000000 0.000000
					CHANNELS 3 Zrotation Yrotation Xrotation
					JOINT LeftArm
					{
						OFFSET 3.362410 1.200890 -0.311210
						CHANNELS 3 Zrotation Yrotation Xrotation
						JOINT LeftForeArm
						{
							OFFSET 4.983000 -0.000000 -0.000000
							CHANNELS 3 Zrotation Yrotation Xrotation
							JOINT LeftHand
							{
								OFFSET 3.483560 -0.000000 -0.000000
								CHANNELS 3 Zrotation Yrotation Xrotation
								JOINT LeftFingerBase
								{
									OFFSET 0.000000 0.000000 0.000000
									CHANNELS 3 Zrotation Yrotation Xrotation
									JOINT LeftHandIndex1
									{
										OFFSET 0.715260 -0.000000 -0.000000
										CHANNELS 3 Zrotation Yrotation Xrotation
										End Site
										{
											OFFSET 0.000000 0.000000 0.000000
										}
									}
								}
								JOINT LThumb
								{
									OFFSET 0.000000 0.000000 0.000000
									CHANNELS 3 Zrotation Yrotation Xrotation
									End Site
									{
										OFFSET 0.000000 0.000000 0.000000
									}
								}
							}
						}
					}
				}
				JOINT RightShoulder
				{
					OFFSET 0.000000 0.000000 0.000000
					CHANNELS 3 Zrotation Yrotation Xrotation
					JOINT RightArm
					{
						OFFSET -3.136600 1.374050 -0.404650
						CHANNELS 3 Zrotation Yrotation Xrotation
						JOINT RightForeArm
						{
							OFFSET -5.241900 -0.000000 -0.000000
							CHANNELS 3 Zrotation Yrotation Xrotation
							JOINT RightHand
							{
								OFFSET -3.444170 -0.000000 -0.000000
								CHANNELS 3 Zrotation Yrotation Xrotation
								JOINT RightFingerBase
								{
									OFFSET 0.000000 0.000000 0.000000
									CHANNELS 3 Zrotation Yrotation Xrotation
									JOINT RightHandIndex1
									{
										OFFSET -0.622530 -0.000000 -0.000000
										CHANNELS 3 Zrotation Yrotation Xrotation
										End Site
										{
											OFFSET 0.000000 0.000000 0.000000
										}
									}
								}
								JOINT RThumb
								{
									OFFSET 0.000000 0.000000 0.000000
									CHANNELS 3 Zrotation Yrotation Xrotation
									End Site
									{
										OFFSET 0.000000 0.000000 0.000000
									}
								}
							}
						}
					}
				}
			}
		}
	}
}
MOTION
Frames: 9
Frame Time: 0.008333
10.945314 18.024308 -41.898056 -4.475909 -3.274446 3.995826 0.367489 0.478854 -1.602501 -4.673328 -24.155582 -21.519304 -2.570349 9.295456 21.041185 -7.712610 21.326321 -4.436198 0.013000 -0.736800 -2.024900 -3.826659 -3.491030 1.807855 36.008555 9.982887 14.322818 5.163227 1.268271 3.192485 8.121882 -29.652372 -17.776206 -1.023200 -6.434800 18.051300 4.158282 1.348913 7.552565 2.267434 2.107329 -0.417717 -5.073510 0.955378 -13.041073 -9.714317 -5.438222 -13.729970 17.094013 -8.006414 16.107699 3.666400 -2.918500 6.078100 -2.085234 -10.254847 1.561083 -90.225844 8.872098 26.959086 23.610190 -23.419408 -6.313201 1.437955 1.183937 15.085321 13.848230 -32.579476 -7.297600 -7.125000 0.000000 0.000000 -10.895900 -4.440500 11.917400 0.769620 11.352729 2.687387 89.661547 -5.237121 28.348676 -19.880413 22.671296 -5.388814 1.203065 0.505967 18.234936 3.562828 -51.582920 -2.055200 7.125000 0.000000 0.000000 72.778000 -70.292400 -51.884400 
10.957229 18.014399 -41.827867 -4.594184 -3.138895 4.145758 0.386707 0.483535 -1.616270 -4.729135 -24.023081 -21.515511 -2.548133 9.318737 21.092964 -7.798790 21.544069 -4.199396 0.077600 -1.797200 -4.945600 -3.827170 -3.495750 1.796542 36.058139 9.783116 14.316953 5.155447 1.263012 3.204243 8.125160 -29.648881 -17.659471 -0.957500 -6.230900 17.455700 4.132565 1.328735 7.478606 2.492076 2.084092 -0.654376 -5.029141 0.935796 -13.040133 -9.866612 -5.417607 -13.715016 17.249448 -7.998160 16.431165 3.748500 -2.885900 6.181400 -2.103087 -10.224813 1.564649 -90.344146 9.161711 26.920216 23.664168 -23.455343 -6.323353 1.404807 1.194162 14.510271 14.128439 -32.239794 -7.406000 -7.125000 0.000000 0.000000 -10.697200 -4.145600 11.641200 0.755967 11.355807 2.716470 89.299878 -5.359017 28.543470 -19.773870 22.538185 -5.353190 1.210493 0.491230 18.403145 3.353821 -51.706818 -1.884700 7.125000 0.000000 0.000000 72.949200 -70.402700 -52.178800 
10.975750 18.010271 -41.748594 -4.633318 -3.074172 4.109661 0.357262 0.546854 -1.578293 -4.915550 -24.022177 -21.288640 -2.526004 9.326628 21.165780 -7.989898 22.001336 -4.114834 0.190900 -2.813600 -7.760300 -3.846181 -3.533612 1.811557 36.029028 9.541517 14.523916 5.143052 1.266290 3.225734 8.181378 -29.746617 -17.399007 -0.813500 -5.755600 16.076900 4.263943 1.326704 7.257785 2.475547 2.079548 -0.487896 -5.091909 0.925897 -12.872274 -9.817443 -5.451584 -13.708035 17.313253 -8.060626 16.546112 3.759200 -2.898900 6.226400 -2.097835 -10.230082 1.552177 -90.328648 9.186602 26.990388 23.743480 -23.515183 -6.332315 1.364758 1.197831 14.051195 14.497651 -31.578594 -7.502300 -7.125000 0.000000 0.000000 -10.411400 -3.542200 11.216900 0.745679 11.365455 2.713151 89.037808 -5.246057 28.554489 -19.682826 22.420526 -5.318505 1.213841 0.487407 18.595227 3.726593 -51.713108 -2.180400 7.125000 0.000000 0.000000 73.200500 -70.279800 -52.260400 
10.993562 18.008501 -41.676871 -4.692799 -2.976560 4.190905 0.346414 0.576699 -1.569552 -5.044304 -23.928492 -21.164170 -2.522010 9.316968 21.198743 -7.941758 21.893577 -3.993408 0.152900 -2.519900 -6.945000 -3.855966 -3.551044 1.802308 36.016578 9.325870 14.623700 5.133006 1.266380 3.245914 8.172582 -29.699278 -17.258192 -0.748700 -5.526800 15.417400 4.350392 1.327550 7.313791 2.504859 2.100307 -0.682609 -5.143209 0.917510 -12.942324 -9.783741 -5.517358 -13.603406 17.327545 -8.173644 16.750892 3.759200 -2.937300 6.280300 -2.101907 -10.204535 1.557913 -90.366801 9.306774 26.557457 23.638066 -23.421598 -6.306102 1.376313 1.219483 13.845356 14.544844 -32.323343 -7.675700 -7.125000 0.000000 0.000000 -10.469000 -4.309800 11.412300 0.746161 11.368440 2.729295 88.764505 -5.258198 28.575575 -19.523447 22.222917 -5.256000 1.220160 0.478840 18.812875 3.850167 -51.710717 -2.274200 7.125000 0.000000 0.000000 73.263400 -70.238800 -52.268200 
11.010431 18.003193 -41.609394 -4.743627 -2.865350 4.394820 0.351807 0.574703 -1.587604 -5.160214 -23.677345 -21.181055 -2.524260 9.300264 21.185370 -7.744696 21.458466 -3.591632 0.113200 -2.169700 -5.974900 -3.854476 -3.550455 1.775191 35.981979 9.163203 14.581420 5.124003 1.258263 3.254624 8.190159 -29.704212 -17.034254 -0.710300 -5.386500 15.014300 4.363526 1.314245 7.497850 2.582060 2.108705 -1.111747 -5.148825 0.900184 -13.137065 -9.709754 -5.565663 -13.620047 17.245670 -8.250538 17.106628 3.729700 -2.948800 6.388100 -2.109743 -10.151276 1.572581 -90.415448 9.585368 26.323656 23.623018 -23.409983 -6.301017 1.389493 1.214211 13.363239 14.019860 -32.492619 -7.384000 -7.125000 0.000000 0.000000 -10.787300 -4.371100 11.782100 0.746206 11.376125 2.766882 88.470829 -5.366042 28.663864 -19.368115 22.036527 -5.207521 1.226277 0.465197 19.023429 3.605828 -52.017687 -2.082200 7.125000 0.000000 0.000000 73.907000 -70.415400 -53.086100 
11.035794 18.005080 -41.521156 -4.723945 -2.995525 4.489203 0.307197 0.638686 -1.544083 -5.306063 -23.911977 -20.872233 -2.531292 9.265435 21.184507 -7.845578 21.678018 -3.816000 0.155300 -2.539300 -6.998600 -3.845320 -3.592361 1.797142 35.813101 9.181783 14.743952 5.116335 1.259803 3.256510 8.265352 -29.811969 -16.667463 -0.611400 -5.004500 13.921400 4.367222 1.362363 7.093008 2.697465 2.147841 -0.927944 -5.132210 0.923317 -12.853291 -9.755040 -5.573829 -13.930877 17.244021 -8.229649 17.343042 3.737500 -2.913200 6.516600 -2.127503 -10.161847 1.557718 -90.489707 9.577961 26.155385 23.676561 -23.450841 -6.309563 1.383516 1.207515 12.868965 13.779506 -32.212706 -7.183000 -7.125000 0.000000 0.000000 -10.894400 -4.034100 11.843700 0.722727 11.403228 2.779262 87.998852 -5.099701 28.680246 -19.232542 21.866480 -5.175867 1.230667 0.455958 19.282361 3.892554 -52.480954 -2.322800 7.125000 0.000000 0.000000 75.316800 -70.452800 -54.458100 
11.063398 18.014163 -41.431856 -4.666494 -3.142352 4.555203 0.236298 0.718870 -1.498784 -5.443840 -24.499016 -20.440617 -2.539429 9.237627 21.194708 -8.168091 22.409953 -4.451748 0.220900 -3.025300 -8.349100 -3.839368 -3.644181 1.830043 35.580656 9.213971 14.943732 5.110506 1.267506 3.269286 8.266418 -29.747346 -16.481742 -0.569900 -4.834700 13.437700 4.494975 1.387071 6.636246 2.660672 2.156786 -0.691697 -5.197599 0.926168 -12.526254 -9.833147 -5.554103 -14.029879 17.336501 -8.195715 17.453614 3.778500 -2.880900 6.577600 -2.126930 -10.191453 1.543309 -90.522249 9.519642 25.757565 23.684536 -23.455714 -6.305567 1.379505 1.212026 12.794062 13.915692 -32.185173 -7.259100 -7.125000 0.000000 0.000000 -10.815500 -4.033300 11.754800 0.713696 11.417385 2.775372 87.592087 -4.780249 28.738743 -19.083483 21.669710 -5.127670 1.242749 0.439730 19.532187 3.614186 -52.665815 -2.093100 7.125000 0.000000 0.000000 75.634200 -70.600500 -54.941300 
11.086637 18.022067 -41.354707 -4.575426 -3.150875 4.667090 0.194810 0.758545 -1.517572 -5.649258 -24.746008 -20.219484 -2.535920 9.237129 21.220507 -8.330418 22.821288 -4.537625 0.244100 -3.179200 -8.777900 -3.843362 -3.671796 1.809709 35.349230 9.107140 15.048040 5.099559 1.266749 3.287504 8.278718 -29.704868 -16.202940 -0.526500 -4.650000 12.913000 4.578314 1.360138 7.047227 2.478654 2.164666 -1.274768 -5.281801 0.898333 -12.892756 -9.771449 -5.542117 -13.845151 17.394860 -8.237434 17.831549 3.803300 -2.870100 6.657900 -2.106215 -10.122078 1.568372 -90.526960 9.982950 25.252215 23.606397 -23.383546 -6.271783 1.394662 1.212671 13.109823 13.901388 -32.350495 -7.280400 -7.125000 0.000000 0.000000 -10.844100 -4.204300 11.817100 0.738405 11.399317 2.811219 87.475679 -5.089505 28.833005 -19.012844 21.588278 -5.115271 1.245918 0.420745 19.850312 2.877584 -53.111707 -1.503900 7.125000 0.000000 0.000000 76.419700 -70.965800 -56.138500 
11.112354 18.031976 -41.268710 -4.453117 -3.075202 4.763753 0.151153 0.797817 -1.506741 -5.884591 -24.975167 -20.026686 -2.536432 9.231335 21.258514 -8.344256 22.887955 -4.576756 0.272800 -3.359500 -9.281300 -3.850719 -3.707505 1.812948 35.092199 8.915355 15.115986 5.081064 1.257504 3.299238 8.413588 -29.927168 -15.547811 -0.391700 -4.018900 11.129700 4.589962 1.359623 6.818669 2.368300 2.143405 -1.349702 -5.289003 0.888354 -12.772431 -9.725189 -5.508823 -13.887054 17.512886 -8.221576 18.044667 3.842100 -2.832200 6.734800 -2.106272 -10.121133 1.568829 -90.506918 10.084016 25.020115 23.616455 -23.371309 -6.241587 1.417082 1.175840 13.142714 13.157334 -31.646606 -6.700700 -7.125000 0.000000 0.000000 -11.200700 -3.347900 12.063100 0.751372 11.417941 2.811867 87.239527 -4.915094 28.141942 -18.775863 21.271667 -4.986684 1.264050 0.403445 20.473754 3.381615 -52.176601 -1.877800 7.125000 0.000000 0.000000 74.134900 -70.545700 -53.460000 
